# xmcd CD database file
#
# Track frame offsets:
#	150
#	14251
#	32319
#	44926
#	61361
#	75979
#	86878
#	101393
#	117967
#	134576
#	145697
#	155549
#	168598
#
# Disc length: 2414 seconds
#
# Revision: 0
# Processed by: cddbd v1.5.2PL0 Copyright (c) Steve Scherf et al.
# Submitted via: CDex 1.70beta2
#
DISCID=a8096c0d
DTITLE=Backwoodsmen, The (02) - Cdn.- Codrington,On - Cty. - Favourite Memories 
DYEAR=2002
DGENRE=Country
TTITLE0=Minsery Loves Company
TTITLE1=As Long As I Live
TTITLE2=Wings of a Dove
TTITLE3=My Favorite Memory
TTITLE4=Have You Last All the Love
TTITLE5=You're Running Wild
TTITLE6=Donj't Let Me Cross Over
TTITLE7=I Have Trouble Dreaming
TTITLE8=Long Black Veil
TTITLE9=I Don't believe You've Me My Baby
TTITLE10=I Don't Care
TTITLE11=Maybe Tomorrow
TTITLE12=Crazy Arms
EXTD=YEAR: 2002
EXTT0=
EXTT1=
EXTT2=
EXTT3=
EXTT4=
EXTT5=
EXTT6=
EXTT7=
EXTT8=
EXTT9=
EXTT10=
EXTT11=
EXTT12=
PLAYORDER=
